<?xml version="1.0" standalone="no"?>
<!DOCTYPE svg PUBLIC "-//W3C//DTD SVG 20010904//EN"
 "http://www.w3.org/TR/2001/REC-SVG-20010904/DTD/svg10.dtd">
<svg version="1.0" xmlns="http://www.w3.org/2000/svg"
 width="50.000000pt" height="50.000000pt" viewBox="0 0 50.000000 50.000000"
 preserveAspectRatio="xMidYMid meet">
<metadata>
Created by potrace 1.16, written by Peter Selinger 2001-2019
</metadata>
<g transform="translate(0.000000,50.000000) scale(0.100000,-0.100000)"
fill="#ffffffff" stroke="none">
<path d="M70 250 l0 -220 50 0 50 0 0 122 0 121 87 -121 86 -122 44 0 43 0 0
220 0 220 -50 0 -50 0 0 -122 0 -122 -86 122 -86 122 -44 0 -44 0 0 -220z
m156 65 c51 -72 99 -131 108 -133 14 -3 16 13 16 132 l0 136 30 0 30 0 0 -201
0 -200 -22 3 c-16 2 -50 42 -114 133 -51 72 -99 131 -108 133 -14 3 -16 -13
-16 -132 l0 -136 -30 0 -30 0 0 201 0 200 22 -3 c16 -2 50 -42 114 -133z"/>
</g>
</svg>
